#!OML:ASF F:\VICON\USERDATA\INSTALL\Justin_Nancy\Justin_Nancy.ASF
:FULLY-SPECIFIED
:DEGREES
253
root 1.1607 17.4283 4.61075 0.206794 0.339309 1.69667
lowerback 3.75908 -0.891444 -5.21396
upperback -0.402201 -1.39424 1.41777
thorax -2.36619 -0.618569 4.47468
lowerneck -15.3563 -3.21064 -10.0899
upperneck 23.6083 -3.41065 6.01469
head 10.3712 -1.78113 3.38458
rclavicle -5.23052e-015 9.54166e-015
rhumerus -36.2576 -20.6992 -76.2247
rradius 26.714
rwrist 10.5164
rhand -17.0511 15.4676
rfingers 7.12502
rthumb 9.18604 -14.3123
lclavicle -5.23052e-015 9.54166e-015
lhumerus -24.4721 3.88658 82.9988
lradius 35.2777
lwrist -4.64136
lhand -16.684 26.4115
lfingers 7.12502
lthumb 9.54027 56.1755
rfemur -15.5051 0.814485 19.9187
rtibia 34.8945
rfoot -14.9905 -8.9594
rtoes -4.55357
lfemur -14.9198 -0.412218 -24.2765
ltibia 31.8887
lfoot -13.4678 -1.05893
ltoes 3.36397
254
root 1.14311 17.4225 4.66037 0.197929 0.156166 1.69211
lowerback 3.75469 -0.812219 -5.19391
upperback -0.500688 -1.29019 1.37795
thorax -2.47903 -0.561472 4.4178
lowerneck -15.2869 -3.2844 -10.0594
upperneck 23.8086 -3.51453 5.92592
head 10.4387 -1.84055 3.33695
rclavicle -1.88845e-015 -1.98785e-015
rhumerus -36.463 -20.6725 -76.2872
rradius 26.8819
rwrist 10.3315
rhand -16.9629 15.18
rfingers 7.12502
rthumb 9.2711 -14.5961
lclavicle -1.88845e-015 -1.98785e-015
lhumerus -24.3316 3.6163 82.8586
lradius 35.2913
lwrist -4.30997
lhand -15.5579 28.0841
lfingers 7.12502
lthumb 10.6266 57.7954
rfemur -15.3223 0.814867 20.0544
rtibia 35.0403
rfoot -12.6795 -8.33713
rtoes 5.13674
lfemur -14.7402 -0.338356 -24.1748
ltibia 31.915
lfoot -13.6947 -0.963932
ltoes 3.16202
255
root 1.12862 17.4162 4.70074 0.279161 -0.0341856 1.69218
lowerback 3.78803 -0.738625 -5.15524
upperback -0.704145 -1.19624 1.35838
thorax -2.72048 -0.503459 4.37411
lowerneck -15.3919 -3.32374 -10.0514
upperneck 24.3744 -3.55667 5.83646
head 10.6692 -1.87674 3.30767
rclavicle -3.79244e-015 -4.77083e-015
rhumerus -36.5638 -20.666 -76.2284
rradius 26.7184
rwrist 10.1671
rhand -17.0846 15.0626
rfingers 7.12502
rthumb 9.1537 -14.7187
lclavicle -3.79244e-015 -4.77083e-015
lhumerus -24.4592 3.29147 82.7895
lradius 35.7391
lwrist -3.61298
lhand -16.4954 27.4268
lfingers 7.12502
lthumb 9.72219 57.1824
rfemur -15.3084 1.16868 20.1483
rtibia 35.2376
rfoot -12.5233 -8.91047
rtoes 4.96362
lfemur -14.6884 -0.319495 -24.1122
ltibia 31.957
lfoot -13.8856 -0.763452
ltoes 2.838
256
root 1.12007 17.4137 4.74634 0.352318 -0.0703492 1.68376
lowerback 3.63868 -0.736817 -5.05539
upperback -0.752842 -1.18223 1.36
thorax -2.69012 -0.497904 4.31601
lowerneck -15.7218 -3.35927 -10.1358
upperneck 24.807 -3.56098 5.83102
head 10.8966 -1.88917 3.3265
rclavicle -1.98971e-014 1.43125e-014
rhumerus -36.5595 -20.6697 -76.2102
rradius 26.7447
rwrist 10.1712
rhand -17.2917 14.8708
rfingers 7.12502
rthumb 8.95385 -14.9192
lclavicle -1.98971e-014 1.43125e-014
lhumerus -24.2733 3.29603 82.7312
lradius 35.8075
lwrist -3.66387
lhand -15.0618 30.5042
lfingers 7.12502
lthumb 11.1051 60.1904
rfemur -15.2812 1.48741 20.1759
rtibia 35.292
rfoot -13.3836 -9.9714
rtoes 0.152958
lfemur -14.5963 -0.396555 -24.0785
ltibia 32.0184
lfoot -14.2019 -0.650591
ltoes 2.15049
257
root 1.10489 17.4146 4.79344 0.352665 -0.195648 1.67948
lowerback 3.3862 -0.718235 -5.06859
upperback -0.643213 -1.14282 1.37237
thorax -2.43837 -0.487788 4.32757
lowerneck -15.8767 -3.35435 -10.1194
upperneck 24.7485 -3.53396 5.81083
head 10.902 -1.87447 3.31824
rclavicle -2.31087e-015 -6.36111e-015
rhumerus -36.4046 -20.5396 -76.3782
rradius 26.9339
rwrist 10.1228
rhand -17.2928 14.9755
rfingers 7.12502
rthumb 8.95278 -14.8145
lclavicle -2.31087e-015 -6.36111e-015
lhumerus -23.8528 3.64419 82.5949
lradius 35.6214
lwrist -4.19233
lhand -15.6243 29.9801
lfingers 7.12502
lthumb 10.5626 59.6947
rfemur -15.0117 2.09655 20.2232
rtibia 35.196
rfoot -14.1029 -10.2485
rtoes 0.128572
lfemur -14.4067 -0.424517 -24.0151
ltibia 32.0169
lfoot -14.3426 -0.50391
ltoes 2.59315
258
root 1.08316 17.4196 4.84713 0.294396 -0.497273 1.61815
lowerback 3.19145 -0.66684 -5.08395
upperback -0.632391 -1.06417 1.39607
thorax -2.32572 -0.4517 4.35315
lowerneck -15.739 -3.25334 -9.98517
upperneck 24.6602 -3.40423 5.68029
head 10.8247 -1.8189 3.26488
rclavicle 9.41121e-016 -6.36111e-015
rhumerus -36.409 -20.3249 -76.4733
rradius 26.9134
rwrist 10.0458
rhand -17.1941 15.1874
rfingers 7.12502
rthumb 9.04809 -14.5985
lclavicle 9.41121e-016 -6.36111e-015
lhumerus -23.7221 4.05769 82.3617
lradius 35.2592
lwrist -4.73373
lhand -16.8599 27.3672
lfingers 7.12502
lthumb 9.37054 57.1389
rfemur -14.6421 2.76042 20.4084
rtibia 35.0106
rfoot -14.6141 -9.99377
rtoes 0.0704557
lfemur -14.0821 -0.527348 -23.8648
ltibia 31.962
lfoot -14.3721 -0.155679
ltoes 3.49538
259
root 1.07251 17.4215 4.89904 0.255378 -0.696903 1.80232
lowerback 3.24888 -0.638322 -5.20427
upperback -0.839185 -1.03948 1.33235
thorax -2.57424 -0.426051 4.35736
lowerneck -15.5389 -3.15211 -9.88935
upperneck 24.8594 -3.28851 5.58279
head 10.8451 -1.77495 3.23415
rclavicle 9.16273e-015 -1.98785e-015
rhumerus -36.8082 -20.0348 -76.4395
rradius 27.0121
rwrist 9.93174
rhand -17.0969 15.1898
rfingers 7.12502
rthumb 9.14184 -14.592
lclavicle 9.16273e-015 -1.98785e-015
lhumerus -24.0024 4.23668 82.1413
lradius 35.0432
lwrist -4.86792
lhand -17.0324 25.1245
lfingers 7.12502
lthumb 9.20409 54.9036
rfemur -14.3825 2.87724 20.2761
rtibia 34.8258
rfoot -14.7464 -9.75949
rtoes -1.28458
lfemur -13.7451 -0.706571 -24.0546
ltibia 31.8688
lfoot -14.4566 0.262608
ltoes 3.4835
260
root 1.0679 17.4216 4.93878 0.28053 -0.796424 2.04607
lowerback 3.26241 -0.633043 -5.32779
upperback -0.975716 -1.04275 1.27205
thorax -2.72223 -0.418584 4.36655
lowerneck -15.4479 -3.16849 -9.98578
upperneck 24.975 -3.30562 5.60599
head 10.8745 -1.79254 3.25925
rclavicle -2.3e-015 9.14409e-015
rhumerus -36.8128 -20.0057 -76.3398
rradius 26.8601
rwrist 10.1746
rhand -17.1274 14.9251
rfingers 7.12502
rthumb 9.1124 -14.858
lclavicle -2.3e-015 9.14409e-015
lhumerus -24.0363 4.41658 82.0443
lradius 34.9852
lwrist -4.6176
lhand -16.6192 26.0293
lfingers 7.12502
lthumb 9.60277 55.7904
rfemur -14.2156 2.71967 20.071
rtibia 34.638
rfoot -14.2897 -9.84226
rtoes -1.70899
lfemur -13.5528 -0.916985 -24.3404
ltibia 31.7681
lfoot -14.4935 0.608461
ltoes 3.22632
261
root 1.05281 17.4236 4.9829 0.248346 -0.926183 1.96239
lowerback 3.1369 -0.639266 -5.25168
upperback -1.02752 -1.0409 1.31445
thorax -2.70578 -0.417951 4.36586
lowerneck -15.1995 -3.16431 -10.1098
upperneck 24.913 -3.31984 5.70879
head 10.8082 -1.80133 3.31581
rclavicle -1.35111e-014 1.35174e-014
rhumerus -36.6089 -20.0387 -76.2314
rradius 26.3729
rwrist 10.7516
rhand -17.1377 15.0754
rfingers 7.12502
rthumb 9.10248 -14.7082
lclavicle -1.35111e-014 1.35174e-014
lhumerus -23.9854 4.78709 81.9471
lradius 34.8734
lwrist -4.34728
lhand -16.5319 27.3707
lfingers 7.12502
lthumb 9.68699 57.1279
rfemur -14.023 3.04799 20.3151
rtibia 34.4132
rfoot -13.5655 -10.145
rtoes -0.288822
lfemur -13.3014 -1.0746 -24.2068
ltibia 31.6923
lfoot -14.57 0.871914
ltoes 2.85167
262
root 1.03474 17.4261 5.04163 0.14238 -0.930087 1.77925
lowerback 2.99203 -0.657832 -5.05983
upperback -1.08335 -1.05034 1.34428
thorax -2.68315 -0.425169 4.28681
lowerneck -14.9562 -3.1099 -10.2023
upperneck 24.9465 -3.29854 5.90227
head 10.7751 -1.78171 3.40741
rclavicle 1.09456e-014 7.15625e-015
rhumerus -36.6454 -19.9685 -76.1972
rradius 26.0579
rwrist 10.8827
rhand -17.2327 15.5736
rfingers 7.12502
rthumb 9.01084 -14.214
lclavicle 1.09456e-014 7.15625e-015
lhumerus -24.1663 5.36446 81.7573
lradius 34.7256
lwrist -4.58236
lhand -16.2625 26.6784
lfingers 7.12502
lthumb 9.9469 56.4234
rfemur -13.5967 3.41733 20.6809
rtibia 34.1154
rfoot -13.1162 -10.5195
rtoes -0.189851
lfemur -12.9182 -1.41757 -23.9752
ltibia 31.7017
lfoot -14.79 1.3023
ltoes 2.27729
263
root 1.02125 17.4311 5.09338 0.167953 -0.976699 1.45552
lowerback 2.74586 -0.680262 -4.6716
upperback -1.09173 -1.05041 1.44804
thorax -2.55698 -0.43436 4.17064
lowerneck -14.8998 -3.11574 -10.325
upperneck 24.8076 -3.28581 5.93903
head 10.7149 -1.78175 3.44068
rclavicle 5.88278e-015 -1.07344e-014
rhumerus -36.5936 -19.6963 -76.279
rradius 26.0901
rwrist 10.7074
rhand -17.2087 15.855
rfingers 7.12502
rthumb 9.03392 -13.9316
lclavicle 5.88278e-015 -1.07344e-014
lhumerus -24.3385 6.00106 81.6396
lradius 34.7286
lwrist -4.73632
lhand -15.4908 26.6067
lfingers 7.12502
lthumb 10.6913 56.3146
rfemur -13.1633 3.88056 21.1699
rtibia 33.7298
rfoot -12.9308 -11.0384
rtoes -0.757244
lfemur -12.7465 -1.75758 -23.6105
ltibia 31.7678
lfoot -14.9437 1.75799
ltoes 1.98191
264
root 1.00696 17.4327 5.14051 0.175909 -1.19738 1.20095
lowerback 2.52423 -0.622455 -4.40468
upperback -1.03681 -0.950862 1.53069
thorax -2.38822 -0.393951 4.0966
lowerneck -15.0135 -3.19805 -10.3108
upperneck 24.6072 -3.37761 5.90113
head 10.6714 -1.82192 3.40673
rclavicle -1.31695e-015 -5.56597e-015
rhumerus -36.4442 -19.5137 -76.4012
rradius 26.2363
rwrist 10.6327
rhand -17.25 15.5252
rfingers 7.12502
rthumb 8.99412 -14.263
lclavicle -1.31695e-015 -5.56597e-015
lhumerus -24.3327 6.34594 81.6212
lradius 34.5634
lwrist -4.53905
lhand -15.9209 25.4868
lfingers 7.12502
lthumb 10.2765 55.2157
rfemur -12.7297 4.36211 21.5845
rtibia 33.3454
rfoot -12.7422 -11.3779
rtoes -1.00044
lfemur -12.5981 -2.03015 -23.3205
ltibia 31.8413
lfoot -15.0648 2.32521
ltoes 1.66897
265
root 0.99358 17.435 5.19346 0.0806185 -1.39912 1.01293
lowerback 2.44419 -0.582539 -4.19782
upperback -1.0715 -0.886695 1.56346
thorax -2.38772 -0.364218 4.01002
lowerneck -15.1341 -3.22128 -10.2162
upperneck 24.7016 -3.42287 5.88675
head 10.7316 -1.83548 3.38053
rclavicle -1.14053e-014 -3.57812e-015
rhumerus -36.367 -19.4692 -76.4095
rradius 26.0291
rwrist 10.8846
rhand -17.242 15.4272
rfingers 7.12502
rthumb 9.00182 -14.3608
lclavicle -1.14053e-014 -3.57812e-015
lhumerus -24.5999 6.59798 81.5467
lradius 34.344
lwrist -4.27708
lhand -16.8511 23.4749
lfingers 7.12502
lthumb 9.37897 53.2462
rfemur -12.2265 4.65635 21.9013
rtibia 33.0001
rfoot -12.6361 -11.4818
rtoes -1.00493
lfemur -12.251 -2.25893 -23.1138
ltibia 31.9265
lfoot -15.3345 2.81475
ltoes 1.54268
266
root 0.980386 17.439 5.23695 0.156836 -1.47418 1.0083
lowerback 2.35201 -0.589006 -4.16628
upperback -1.18467 -0.892106 1.55167
thorax -2.45275 -0.363731 3.97994
lowerneck -15.4747 -3.17217 -10.0633
upperneck 24.9837 -3.36314 5.87146
head 10.8931 -1.79529 3.36213
rclavicle 1.57847e-014 2.78299e-015
rhumerus -36.1486 -19.7526 -76.2669
rradius 25.6316
rwrist 11.6583
rhand -17.0405 15.3041
rfingers 7.12502
rthumb 9.19627 -14.4753
lclavicle 1.57847e-014 2.78299e-015
lhumerus -24.9162 6.90936 81.4645
lradius 34.2772
lwrist -4.17617
lhand -17.0731 24.1897
lfingers 7.12502
lthumb 9.16479 53.9706
rfemur -12.0069 4.74884 21.9711
rtibia 32.7418
rfoot -12.7008 -11.4386
rtoes -1.04189
lfemur -12.0885 -2.46691 -23.0972
ltibia 31.9368
lfoot -15.5541 3.18661
ltoes 1.47935
267
root 0.96798 17.4426 5.27736 0.31446 -1.64171 0.825025
lowerback 2.11734 -0.559284 -3.96992
upperback -1.23137 -0.835701 1.62832
thorax -2.37566 -0.339174 3.94305
lowerneck -15.7997 -3.16019 -10.0239
upperneck 25.1457 -3.31683 5.8343
head 11.0118 -1.77278 3.35068
rclavicle -2.14315e-015 1.03368e-014
rhumerus -35.9516 -19.7709 -76.2001
rradius 25.6164
rwrist 12.205
rhand -16.9289 14.6297
rfingers 7.12502
rthumb 9.30394 -15.145
lclavicle -2.14315e-015 1.03368e-014
lhumerus -25.0544 7.41058 81.4548
lradius 34.2336
lwrist -3.95352
lhand -16.7235 25.3365
lfingers 7.12502
lthumb 9.50213 55.1023
rfemur -11.9246 4.91945 22.2296
rtibia 32.5551
rfoot -12.7254 -11.457
rtoes -1.16227
lfemur -12.0465 -2.68252 -22.8911
ltibia 31.8397
lfoot -15.4936 3.59818
ltoes 1.45807
